PathFileType  4	(X/Y/Z) C:\Users\antoi\Documents\MyRepositories\mobilecap\ResultsAnalysis
DataRate	CameraRate	NumFrames	NumMarkers	Units	OrigDataRate	OrigDataStartFrame	OrigNumFrames
100.0	100.0	4	51	mm	100.0	118	134
Frame#	Time	r_knee			r_shank_antsup			r_ankle			r_calc			r_5meta			r_toe			L_knee			L_shank_antsup			L_ankle			L_calc			L_5meta			L_toe			r_sh2			r_sh3			r_sh4			L_sh2			L_sh3			r_thigh1			r_thigh2			r_thigh3			r_thigh4			r_thigh5			L_thigh1			L_thigh2			L_thigh3			L_thigh4			r.ASIS			r.PSIS			L.ASIS			L.PSIS			C7			R_Shoulder			L_Shoulder			R_Sternum			L_Sternum			R_humerus			R_elbow_med			R_elbow_lat			R_forearm			R_wrist_radius			R_wrist_ulna			L_humerus			L_elbow_med			L_elbow_lat			L_forearm			L_wrist_radius			L_wrist_ulna			R_HJC			L_HJC			R_HJC_reg			L_HJC_reg			
		X1	Y1	Z1	X2	Y2	Z2	X3	Y3	Z3	X4	Y4	Z4	X5	Y5	Z5	X6	Y6	Z6	X7	Y7	Z7	X8	Y8	Z8	X9	Y9	Z9	X10	Y10	Z10	X11	Y11	Z11	X12	Y12	Z12	X13	Y13	Z13	X14	Y14	Z14	X15	Y15	Z15	X16	Y16	Z16	X17	Y17	Z17	X18	Y18	Z18	X19	Y19	Z19	X20	Y20	Z20	X21	Y21	Z21	X22	Y22	Z22	X23	Y23	Z23	X24	Y24	Z24	X25	Y25	Z25	X26	Y26	Z26	X27	Y27	Z27	X28	Y28	Z28	X29	Y29	Z29	X30	Y30	Z30	X31	Y31	Z31	X32	Y32	Z32	X33	Y33	Z33	X34	Y34	Z34	X35	Y35	Z35	X36	Y36	Z36	X37	Y37	Z37	X38	Y38	Z38	X39	Y39	Z39	X40	Y40	Z40	X41	Y41	Z41	X42	Y42	Z42	X43	Y43	Z43	X44	Y44	Z44	X45	Y45	Z45	X46	Y46	Z46	X47	Y47	Z47	X48	Y48	Z48	X49	Y49	Z49	X50	Y50	Z50	X51	Y51	Z51	

118	1.17000000	1444.65755	497.25316	-65.03911	1490.29901	439.07128	-96.16696	1481.98368	95.10607	-90.46698	1411.03541	64.11868	-111.00961	1594.44654	45.13597	-90.56322	1626.10802	78.31338	-154.87049	1172.39420	481.43471	-299.97966	1154.23527	377.95642	-299.31618	929.29220	157.18105	-265.67002	845.17077	164.53350	-232.99819	987.05197	40.82722	-264.36583	1024.65343	52.48280	-201.62999	1494.29497	324.37567	-71.82928	1423.16336	437.56914	-46.59038	1424.76657	324.89693	-43.85566	1087.27388	436.79061	-309.42425	1015.70670	337.15381	-308.59955	1414.53137	815.84140	-30.63567	1442.56172	705.61820	-44.73640	1403.37845	670.63359	-4.25465	1315.81493	785.53290	13.86269	1345.67059	672.61397	-2.83470	1255.48328	733.43205	-361.34251	1237.30384	600.16725	-331.10683	1154.01630	754.68729	-308.70247	1140.15272	616.78783	-286.71011	1386.94938	963.05115	-66.92766	1188.25317	993.89147	-108.48057	1351.36591	930.02051	-313.20638	1165.04078	992.40301	-206.94433	1164.92865	1397.67657	-206.00217	1269.31281	1374.78585	-27.37218	1247.96157	1364.38899	-383.28025	1308.15113	1372.41490	-184.61502	1312.46395	1372.28799	-229.18291	1278.99263	1248.70613	49.40275	1230.01418	1032.26588	33.25962	1241.04131	1060.45828	99.54136	1306.99416	945.24917	146.24063	1331.07929	814.08303	181.44270	1305.18255	815.94937	203.37205	1296.10864	1255.64381	-438.70826	1286.60224	1014.33600	-402.94752	1331.58565	1046.37520	-461.11228	1416.16885	975.40208	-414.34567	1497.56665	842.02492	-387.05412	1498.60623	842.61734	-421.59445	1310.45881	881.19409	-67.22463	1273.48087	861.97094	-269.44668	1319.98465	872.93355	-84.74709	1281.97554	870.49795	-245.98053	
119	1.18000000	1457.04321	497.73164	-66.11636	1500.61994	437.88634	-97.61180	1483.65424	94.66122	-91.12182	1411.79940	64.69972	-111.26903	1595.24611	43.58669	-90.55330	1627.29699	75.36539	-155.49927	1191.64559	479.34178	-302.11319	1171.13614	376.92616	-302.39171	939.63542	163.22643	-267.17787	857.16910	176.51378	-234.14328	989.11414	42.21218	-264.48537	1028.37050	52.39080	-202.44706	1502.73186	323.28483	-73.11271	1434.51390	438.04445	-46.94560	1433.71296	325.44402	-43.85553	1105.98880	437.99887	-310.70995	1031.15583	340.94218	-309.79037	1428.33249	816.95211	-31.80040	1455.97105	706.62603	-46.12622	1417.42206	671.77965	-4.99590	1330.17656	786.74996	14.13575	1359.77214	673.77608	-2.61716	1270.50421	733.20885	-361.30821	1255.01323	599.19936	-332.67205	1169.05710	751.87299	-307.73886	1158.20539	613.63733	-286.77396	1400.75092	964.11365	-67.10248	1201.83795	994.65221	-108.09759	1364.61063	930.89559	-312.96455	1178.38472	992.66387	-206.47209	1177.84815	1397.86886	-204.41477	1282.86788	1374.99392	-26.19513	1260.29609	1365.06628	-382.00736	1321.06580	1372.87702	-183.39843	1325.11854	1372.81905	-227.93405	1292.90278	1248.83449	50.37272	1243.72176	1032.54066	33.87991	1254.60441	1060.67766	100.23993	1319.61803	945.31175	147.47067	1342.63724	813.99531	183.20210	1316.60631	816.14704	204.99631	1308.04871	1256.22765	-437.63631	1296.75215	1015.01087	-402.25079	1341.75948	1046.61847	-460.60051	1425.78575	974.82449	-414.14302	1506.45312	841.02713	-386.91584	1507.41956	841.61294	-421.46212	1324.45061	882.14967	-66.99157	1287.01235	862.60714	-269.09849	1333.80713	874.48113	-84.32952	1295.44056	871.22916	-245.25813	
120	1.19000000	1469.16736	498.18183	-67.21614	1510.59605	436.63001	-98.92417	1484.90413	94.37743	-91.74796	1412.23724	65.10741	-111.45430	1595.78019	42.69195	-90.42251	1628.06063	73.19260	-156.00491	1211.95266	477.00036	-304.76248	1189.07154	375.78637	-305.85591	951.18032	169.44212	-268.90849	871.09942	189.12700	-235.49540	991.33347	44.20886	-264.51586	1032.60845	52.74981	-203.59767	1510.66782	322.18493	-74.27629	1445.47011	438.51520	-47.37237	1442.12749	326.01655	-44.03148	1125.90592	439.09031	-312.39393	1047.86035	344.78339	-311.27447	1442.07120	818.02733	-32.72430	1469.32503	707.61286	-47.21002	1431.28323	672.89598	-5.56519	1344.42777	787.97692	14.50637	1373.71868	674.96995	-2.35897	1285.93211	732.86684	-361.44715	1273.48653	598.12439	-334.54368	1184.58212	748.59635	-306.86084	1176.98110	610.00144	-287.34299	1414.41623	965.19028	-67.16586	1215.25560	995.34426	-107.71843	1377.78738	931.76695	-312.63936	1191.57592	992.83220	-205.99161	1190.67800	1398.09133	-202.85272	1296.43420	1375.18556	-25.09085	1272.51881	1365.72612	-380.77134	1333.89497	1373.31978	-182.24491	1337.70767	1373.30185	-226.73808	1306.93366	1248.96738	51.29765	1257.45245	1032.82472	34.64840	1268.32923	1060.91107	101.04161	1332.56027	945.42627	148.67461	1354.73347	813.98168	184.82946	1328.58105	816.33356	206.50683	1319.79724	1256.76490	-436.61339	1306.66945	1015.65040	-401.57808	1351.68525	1046.81425	-460.17197	1435.13504	974.14166	-414.12149	1514.93622	839.82205	-387.05751	1515.83489	840.42729	-421.60386	1338.31284	883.09175	-66.69238	1300.49792	863.20240	-268.69532	1347.54024	876.02872	-83.80363	1308.83302	871.92207	-244.43937	
121	1.20000000	1480.80398	498.46451	-68.25602	1520.18688	435.25421	-99.99561	1485.84134	94.20020	-92.33366	1412.45175	65.36259	-111.59474	1596.12432	42.24967	-90.22065	1628.53865	71.63961	-156.38979	1233.21075	474.51436	-307.84755	1207.93259	374.56646	-309.60342	963.87179	175.79260	-270.88067	887.01272	202.17235	-236.97599	993.75168	46.96818	-264.39933	1037.48448	53.67512	-205.15499	1518.01709	321.00381	-75.24891	1455.86141	438.87608	-47.86015	1449.87954	326.50900	-44.39627	1146.90851	440.08331	-314.41835	1065.76272	348.63298	-312.99425	1455.68689	818.88970	-33.32390	1482.49078	708.39377	-47.91222	1444.75360	673.83052	-5.91882	1358.43831	789.13657	14.95492	1387.28601	676.08500	-2.06514	1301.63301	732.40006	-361.78939	1292.52817	596.99694	-336.68089	1200.51534	744.97849	-306.03389	1196.30047	606.01515	-288.40262	1427.93872	966.25596	-67.11720	1228.50001	995.92617	-107.37807	1390.86742	932.57791	-312.23934	1204.58157	992.86904	-205.53871	1203.38395	1398.33147	-201.35250	1309.96560	1375.33807	-24.08129	1284.61357	1366.34945	-379.59517	1346.61146	1373.71642	-181.18520	1350.22268	1373.70699	-225.63333	1321.02631	1249.08206	52.15650	1271.20119	1033.08760	35.55677	1282.20263	1061.12623	101.93811	1345.83024	945.57235	149.84614	1367.36851	814.01234	186.33431	1341.13213	816.50415	207.91512	1331.33564	1257.23018	-435.66440	1316.34310	1016.22438	-400.95293	1361.43476	1046.98817	-459.77712	1444.25585	973.35786	-414.23193	1523.02767	838.39500	-387.47105	1523.87228	839.05123	-422.01374	1352.02439	883.99364	-66.33451	1313.92067	863.70429	-268.24309	1361.19776	877.52485	-83.15906	1322.12373	872.52962	-243.51366	
